<svg xmlns="http://www.w3.org/2000/svg" viewBox="0 0 64 64" role="img" aria-labelledby="title">
  <title id="title">VerifyChain Shield Icon</title>
  <defs>
    <linearGradient id="shieldGradient" x1="12" x2="52" y1="8" y2="56" gradientUnits="userSpaceOnUse">
      <stop offset="0" stop-color="#34d399" />
      <stop offset="1" stop-color="#059669" />
    </linearGradient>
  </defs>
  <path fill="url(#shieldGradient)" d="M32 4a4 4 0 0 1 1.64.35l20 8A4 4 0 0 1 56 16v12c0 17.64-10.93 26.61-21.28 31.16a4 4 0 0 1-3.44 0C21.93 54.61 11 45.64 11 28V16a4 4 0 0 1 2.36-3.65l20-8A4 4 0 0 1 32 4Z" />
  <path fill="none" stroke="#ecfdf5" stroke-linecap="round" stroke-linejoin="round" stroke-width="5" d="M24 32.5 30.5 39l11-14" />
</svg>
